<mxfile host="app.diagrams.net" modified="2024-04-25T06:43:11.222Z" agent="Mozilla/5.0 (Windows NT 10.0; Win64; x64) AppleWebKit/537.36 (KHTML, like Gecko) Chrome/123.0.0.0 Safari/537.36" version="24.3.0" etag="_xPPmlGfI_IugXuNsA--" type="github">
  <diagram name="페이지-1" id="wLmmiaRQ8Xdqs9F44vBy">
    <mxGraphModel>
      <root>
        <mxCell id="0" />
        <mxCell id="1" parent="0" />
      </root>
    </mxGraphModel>
  </diagram>
</mxfile>
